<svg width="107" height="123" viewBox="0 0 107 123" fill="none" xmlns="http://www.w3.org/2000/svg">
<path d="M59.0911 39.9312C59.0911 39.9312 73.5944 45.1187 61.921 59.9738" stroke="#2A1E17" stroke-miterlimit="10" stroke-linecap="round" stroke-linejoin="round"/>
<path d="M38.3384 44.0576C38.3384 44.0576 58.1476 62.2139 69.1135 62.096C80.0793 61.9781 92.9318 59.3844 100.478 46.2977" stroke="#2A1E17" stroke-miterlimit="10" stroke-linecap="round" stroke-linejoin="round"/>
<path d="M78.5466 0.906982L59.0911 40.0492C59.0911 40.0492 72.2973 44.883 61.921 60.0918C61.921 60.0918 86.3289 70.2311 102.365 43.9398C118.401 17.6485 78.5466 0.906982 78.5466 0.906982Z" fill="#91BA83"/>
<path d="M33.8576 120.338C23.953 120.338 13.5767 116.329 2.84668 108.312L39.2816 47.8303L60.9775 61.5065H61.0954C61.3313 61.6244 66.1657 63.5108 72.8867 63.5108C78.4286 63.5108 85.2675 62.2139 91.9885 57.498L65.3403 103.125C65.4582 103.36 54.0207 120.338 33.8576 120.338Z" fill="white"/>
<path d="M39.9892 50.4241L60.0343 63.0392L60.2701 63.1571L60.506 63.275C60.7418 63.3929 65.812 65.515 73.0047 65.515C77.1316 65.515 82.2019 64.8077 87.2721 62.5676L64.0433 102.417C63.218 103.478 52.37 118.687 33.8577 118.687C24.7785 118.687 15.1097 115.15 5.20504 107.958L39.9892 50.4241ZM102.365 43.8218C93.2856 58.6769 81.6123 61.9781 73.1226 61.9781C66.5195 61.9781 61.9209 60.0917 61.9209 60.0917L38.8101 45.5902L0.606445 108.902C13.4589 118.805 24.5427 122.224 33.9757 122.224C55.3178 122.224 67.1091 104.304 67.1091 104.304L102.365 43.8218Z" fill="#96BD89"/>
<path d="M40.8145 67.6372C40.8145 67.6372 54.3744 79.6628 69.5851 75.8901" stroke="#2A1E17" stroke-miterlimit="10" stroke-linecap="round" stroke-linejoin="round"/>
<path d="M55.082 85.6755C55.082 85.6755 62.2747 90.9809 72.1793 85.9113" stroke="#2A1E17" stroke-miterlimit="10" stroke-linecap="round" stroke-linejoin="round"/>
<path d="M22.3022 93.1033C22.3022 93.1033 38.81 109.491 64.6328 98.6445" stroke="#2A1E17" stroke-miterlimit="10" stroke-linecap="round" stroke-linejoin="round"/>
<path d="M31.2637 77.0691C31.2637 77.0691 37.9846 81.9029 42.2295 83.4356" stroke="#2A1E17" stroke-miterlimit="10" stroke-linecap="round" stroke-linejoin="round"/>
<path d="M81.8481 12.2251C81.8481 12.2251 96.823 17.1768 98.7096 36.9837" stroke="#2A1E17" stroke-miterlimit="10" stroke-linecap="round" stroke-linejoin="round"/>
<path d="M89.3945 36.748C89.3945 36.748 96.3514 47.4768 84.5601 58.2055" stroke="#2A1E17" stroke-miterlimit="10" stroke-linecap="round" stroke-linejoin="round"/>
</svg>
