<svg width="104" height="85" viewBox="0 0 104 85" fill="none" xmlns="http://www.w3.org/2000/svg">
<path d="M33.2073 83.6478L1.84265 68.9105C-0.633508 67.7316 -0.633537 64.0767 1.96054 63.0156L60.3272 37.3139C61.1526 36.9602 62.0959 36.9602 62.9213 37.3139L103.012 54.527L33.2073 83.6478Z" fill="#2A1E33"/>
<path d="M31.3208 35.1916C31.4387 48.1604 33.2074 83.5298 33.2074 83.5298L102.894 54.409L101.361 5.1276C101.243 2.06225 98.1771 0.175881 95.3472 1.35486L35.3298 28.7072C32.8537 30.0041 31.3208 32.48 31.3208 35.1916Z" fill="#C6CBCB"/>
<path d="M33.2073 83.6478L102.894 54.5269L101.361 5.24551C101.361 5.24551 100.889 -0.177814 95.3471 1.47276" stroke="#2A1E17" stroke-miterlimit="10" stroke-linecap="round" stroke-linejoin="round"/>
<path d="M67.0483 48.1605L71.6469 37.0781" stroke="#2A1E17" stroke-miterlimit="10" stroke-linecap="round" stroke-linejoin="round"/>
<path d="M71.6467 48.1605L76.3633 37.0781" stroke="#2A1E17" stroke-miterlimit="10" stroke-linecap="round" stroke-linejoin="round"/>
</svg>
