<svg width="46" height="88" viewBox="0 0 46 88" fill="none" xmlns="http://www.w3.org/2000/svg">
<path d="M18.4706 5.797L26.4886 73.1168C26.6066 74.6495 28.0215 75.5927 29.4365 75.4748L42.9964 73.5884C44.4113 73.3526 45.4726 72.1736 45.2367 70.641L38.7516 3.08534C38.6337 1.55267 37.2187 0.491587 35.6858 0.727383L20.711 2.96745C19.296 3.08535 18.3527 4.38222 18.4706 5.797Z" fill="white" stroke="#2A1E17" stroke-miterlimit="10" stroke-linecap="round" stroke-linejoin="round"/>
<path d="M22.5974 7.3297L25.0736 23.128L37.1007 22.1849L35.8036 5.32544L22.5974 7.3297Z" fill="#FF6D66"/>
<path d="M26.0168 29.1409L27.6676 45.7645L38.7514 44.7034L37.2185 27.844L26.0168 29.1409Z" fill="#91BA83"/>
<path d="M27.9036 51.6594L30.3797 67.3399L40.5202 66.2788L39.2232 50.2446L27.9036 51.6594Z" fill="#FAD8B0"/>
<path d="M1.01959 20.1806L23.1871 85.3782C23.5408 86.4393 24.8379 87.0288 25.8991 86.6751L39.8128 81.7234C40.874 81.3697 41.4635 80.1907 41.1098 79.1296L20.2393 13.3425C19.8856 12.1635 18.5885 11.574 17.5273 12.0456L2.3166 17.7047C1.25539 17.8226 0.665853 19.0016 1.01959 20.1806Z" fill="white" stroke="#2A1E17" stroke-miterlimit="10" stroke-linecap="round" stroke-linejoin="round"/>
<path d="M5.50024 21.3595L11.278 36.2146L22.8334 32.7956L17.999 16.5256L5.50024 21.3595Z" fill="#A0C6F4"/>
<path d="M13.4004 41.8739L18.4706 57.7901L29.0827 54.489L24.1304 38.3369L13.4004 41.8739Z" fill="#F9865F"/>
<path d="M19.8855 63.4492L25.6632 78.4223L35.2141 75.2391L30.7334 59.6765L19.8855 63.4492Z" fill="#FAD8B0"/>
</svg>
