<svg width="1138" height="1080" viewBox="0 0 1138 1080" fill="none" xmlns="http://www.w3.org/2000/svg">
<g clip-path="url(#clip0_202_2426)">
<path d="M191.801 353.594C94.6691 301.339 2.32844 309.025 -21.6211 312.169C-20.2784 262.27 -17.6552 187.776 -14.8495 176.024C-13.1102 175.208 -9.40445 173.505 -3.49986 171.657C13.3055 166.4 50.1222 158.959 110.108 168.192C196.516 181.392 229.439 216.492 236.476 225.436L191.801 353.594Z" fill="white"/>
<path d="M-2.17749 176.681C14.1737 171.565 50.5362 164.266 109.231 173.36C187.288 185.367 220.711 215.689 230.566 226.47L188.873 346.627C131.79 317.183 77.4923 307.801 41.1435 305.581C15.4174 303.843 -4.67669 304.964 -16.7289 306.288C-15.2685 251.188 -12.8329 194.423 -10.7298 179.629C-8.68593 178.989 -5.81107 177.818 -2.17749 176.681ZM-5.2764 166.776C-14.3604 169.618 -18.8196 172.101 -18.8196 172.101C-23.4231 175.716 -26.7402 318.12 -26.7402 318.12C-26.7402 318.12 80.3808 297.11 194.275 360.704L241.478 224.687C241.478 224.687 212.125 178.684 109.998 163.061C50.5444 153.933 13.1186 161.021 -5.2764 166.776Z" fill="#A0C6F4"/>
<path d="M-8.34827 323.512C-8.34827 323.512 96.8785 302.823 179.236 346.108" stroke="#2A1E17" stroke-miterlimit="10" stroke-linecap="round" stroke-linejoin="round"/>
<path d="M77.8348 290.567L90.5818 198.225L155.906 269.946L77.8348 290.567Z" fill="#A0C6F4"/>
<path d="M84.9418 286.984L97.6886 194.642L162.786 266.435L84.9418 286.984Z" stroke="#2A1E17" stroke-miterlimit="10" stroke-linecap="round" stroke-linejoin="round"/>
<path d="M5.4375 157.987C5.4375 157.987 122.928 133.461 222.752 203.088" stroke="#2A1E17" stroke-miterlimit="10" stroke-linecap="round" stroke-linejoin="round"/>
<path d="M175.136 496.369C167.228 493.406 162.055 491.218 162.055 491.218C163.097 488.173 180.582 447.633 188.422 416.907C188.5 417.155 178.558 497.744 175.136 496.369Z" fill="#2A1E17"/>
<path d="M130.93 916.899L118.411 904.776L106.437 964.525L115.641 968.442L130.93 916.899Z" fill="#F9865F"/>
<path d="M-60.7442 802.335C-60.7442 802.335 -106.309 736.393 -97.0767 698.163C-89.4693 666.694 -24.2104 693.58 -15.3885 697.073L-1.2258 612.443C-1.2258 612.443 -13.9616 602.02 -38.8059 595.928C-63.6501 589.836 -162.41 578.597 -181.363 661.463C-188.217 692.153 -153.659 803.404 -111.492 836.971L-60.7442 802.335Z" fill="#7595EC"/>
<path d="M-60.7443 802.335C-60.7443 802.335 -106.309 736.393 -97.0768 698.163C-89.4694 666.694 -24.2105 693.58 -15.3886 697.073" stroke="#2A1E17" stroke-miterlimit="10" stroke-linecap="round" stroke-linejoin="round"/>
<path d="M-1.07097 612.939C-11.8334 637.511 -32.3556 747.238 -29.6105 795.857C-25.7731 860.718 -4.44607 908.961 108.593 980.978L128.729 905.082C128.729 905.082 86.004 867.34 77.5145 821.877C65.1757 756.142 87.2945 681.801 96.2515 636.317L-1.07097 612.939Z" fill="#7595EC"/>
<path d="M7.84454 619.121L91.8988 655.078L101.58 615.892L7.84454 619.121Z" fill="#2A1E17"/>
<path d="M370.396 439.899C381.617 439.107 390.655 440.9 398.043 445.386C405.43 449.871 403.939 453.871 402.515 456.492C401.091 459.112 392.899 459.228 384.072 454.922C375.245 450.615 370.396 439.899 370.396 439.899Z" fill="#FF8A66"/>
<path d="M162.282 491.147C163.324 488.102 180.809 447.562 188.649 416.836C188.649 416.836 255.155 460.458 260.771 460.876C263.048 460.98 274.552 457.108 289.236 452.242C313.912 444.25 346.764 433.7 355.271 435.388C368.79 437.955 376.837 438.971 382.351 447.033C388.093 455.023 391.01 460.363 384.125 463.061C376.182 466.362 367.395 456.606 367.395 456.606C367.395 456.606 362.203 463.123 347.34 475.386C347.34 475.386 293.931 520.641 248.875 520.873C236.513 521.207 162.282 491.147 162.282 491.147Z" fill="#F9865F"/>
<path d="M-68.9607 380.808C-68.9607 380.808 -53.0894 429.942 -34.6229 446.728L-30.9277 443.397C-30.9277 443.397 -65.3797 534.103 -68.8225 587.648C-69.3731 596.248 78.6982 643.168 96.2516 636.317C96.2516 636.317 124.69 519.22 135.76 483.677L163.295 495.18C163.295 495.18 191.192 434.527 188.272 417.226C188.272 417.226 129.819 375.434 91.1725 369.854C52.299 364.346 13.4953 346.31 -22.3811 358.35C-53.4883 368.899 -68.9607 380.808 -68.9607 380.808Z" fill="#FFF7C9"/>
<path d="M163.522 495.109L135.91 483.359L136.14 472.14L163.522 495.109Z" fill="#2A1E17"/>
<path d="M135.63 289.611C135.798 303.695 136.595 344.496 125.804 353.038C115.013 361.58 100.436 359.616 100.436 359.616L89.5107 370.918C89.6201 376.049 80.4906 383.527 67.2467 388.214C57.6363 391.765 47.1662 379.816 46.9421 368.74C46.8327 363.609 44.7789 339.513 44.7789 339.513C44.7789 339.513 42.1272 293.583 49.1809 281.861C56.2346 270.139 62.5295 258.383 92.2871 261.85C137.38 267.315 135.63 289.611 135.63 289.611Z" fill="#F9865F"/>
<path d="M57.1415 316.071C57.8038 324.563 55.2678 342.756 49.4194 341.595C43.4936 340.187 39.4301 333.574 38.6477 318.323C37.8654 303.072 30.674 270.524 38.8845 261.703C47.095 252.881 53.5017 258.217 53.5017 258.217C53.5017 258.217 41.9043 236.291 53.6922 229.34C53.6922 229.34 57.3098 225.762 60.6784 242.107C60.6784 242.107 61.1036 225.934 77.6204 222.941C94.1371 219.948 107.407 242.439 107.407 242.439C107.407 242.439 106.451 235.398 113.718 233.124C120.985 230.85 135.754 239.007 137.135 252.983C137.135 252.983 153.743 240.719 168.848 253.935C183.877 266.904 188.092 285.159 166.493 299.801C143.836 315.045 134.07 283.031 128.969 280.277C123.792 277.276 118.232 273.85 106.161 283.879C93.8624 293.98 74.0599 281.689 74.0599 281.689C74.0599 281.689 78.1417 302.704 76.2634 305.467C74.6122 308.158 70.6178 312.127 68.7318 302.114C66.9234 292.35 68.7455 292.595 67.0624 290.403C65.3793 288.211 58.9619 281.248 52.806 291.057C46.4282 301.752 57.1415 316.071 57.1415 316.071Z" fill="#2A1E33"/>
<path d="M62.3914 318.506C55.3141 315.012 48.6644 307.305 50.6445 296.899C52.8516 286.422 60.4127 282.697 63.9955 285.382C67.5782 288.067 70.2684 293.478 70.0892 300.874" stroke="#2A1E33" stroke-miterlimit="10" stroke-linecap="round" stroke-linejoin="round"/>
<path d="M115.641 968.442L120.536 974.523L123.294 1013.62C123.631 1018.68 126.465 1022.96 130.879 1025.11L151.964 943.485C154.038 935.767 150.34 927.137 143.49 923.572L130.93 916.899L115.641 968.442Z" fill="black"/>
<path d="M53.5792 258.464C53.5792 258.464 46.7585 247.821 36.0635 247.905" stroke="#2A1E33" stroke-miterlimit="10" stroke-linecap="round" stroke-linejoin="round"/>
<path d="M-71.0426 584.537L-9.6452 368.774" stroke="#2A1E17" stroke-miterlimit="10" stroke-linecap="round" stroke-linejoin="round"/>
<path d="M42.8275 365.95C40.372 373.243 46.6898 399.811 66.6852 395.186C86.7581 390.809 96.3046 377.492 96.3046 377.492" stroke="#2A1E17" stroke-miterlimit="10" stroke-linecap="round" stroke-linejoin="round"/>
<path d="M341.372 467.466C341.372 467.466 353.013 472.795 367.395 456.606C372.819 450.831 365.261 443.409 357.782 448.195C350.304 452.982 339.454 452.57 339.454 452.57" stroke="#2A1E17" stroke-miterlimit="10" stroke-linecap="round" stroke-linejoin="round"/>
<path d="M373.963 440.142C373.963 440.142 386.001 448.337 387.866 455.094" stroke="#2A1E17" stroke-miterlimit="10" stroke-linecap="round" stroke-linejoin="round"/>
<path d="M246.627 478.623C246.627 478.623 250.784 464.816 260.544 460.947" stroke="#2A1E17" stroke-miterlimit="10" stroke-linecap="round" stroke-linejoin="round"/>
<path d="M-15.7479 653.688L-21.9235 695.311C-21.9235 695.311 -46.0716 818.95 -5.38562 881.253" stroke="#2A1E17" stroke-miterlimit="10" stroke-linecap="round" stroke-linejoin="round"/>
<path d="M72.857 759.176L96.1741 636.069C96.1741 636.069 133.641 496.03 135.945 477.095L145.56 416.181" stroke="#2A1E17" stroke-miterlimit="10" stroke-linecap="round" stroke-linejoin="round"/>
<path d="M-59.835 593.264C-59.835 593.264 65.4892 641.592 96.4787 636.246" stroke="#2A1E17" stroke-miterlimit="10" stroke-linecap="round" stroke-linejoin="round"/>
<path d="M182.841 410.226C186.092 431.773 157.863 488.18 157.863 488.18" stroke="#2A1E17" stroke-miterlimit="10" stroke-linecap="round" stroke-linejoin="round"/>
<path d="M551.186 722.885L540.032 699.189L563.979 707.193L554.457 712.619L551.186 722.885Z" stroke="#2A1E17" stroke-miterlimit="10" stroke-linecap="round" stroke-linejoin="round"/>
<path d="M-225.955 500.61C-273.824 476.711 -307.029 584.153 3.46025 795.569C182.743 917.543 288.146 900.605 284.108 839.885C276.949 730.935 180.4 733.141 225.725 762.457C291.694 805.16 431.75 774.662 516.452 689.168C600.023 604.843 512.681 541.641 505 538.608" stroke="#2A1E17" stroke-miterlimit="10" stroke-linecap="round" stroke-linejoin="round"/>
<path d="M520.051 694.295C523.312 693.275 525.053 689.565 523.941 686.009C522.828 682.454 519.283 680.398 516.022 681.419C512.761 682.439 511.019 686.148 512.132 689.704C513.244 693.26 516.79 695.315 520.051 694.295Z" fill="#2A1E17"/>
<path d="M448.091 767.918L590.614 604.253" stroke="#2A1E17" stroke-miterlimit="10" stroke-linecap="round" stroke-linejoin="round"/>
<path d="M614.744 814.462C617.88 813.481 619.554 809.914 618.485 806.495C617.415 803.076 614.006 801.1 610.87 802.081C607.735 803.062 606.06 806.629 607.13 810.048C608.199 813.466 611.608 815.443 614.744 814.462Z" fill="#FAD8B0"/>
<path d="M425.969 563.334L355.877 551.282C350.333 550.298 347.931 542.621 352.23 538.83L447.755 449.678C449.113 448.437 450.929 447.869 452.752 448.114L541.276 460.109L425.969 563.334Z" fill="#2A1E33"/>
<path d="M390.495 462.699C399.244 489.866 425.892 563.086 425.892 563.086L540.972 459.932L505.636 357.351C503.394 350.984 496.25 348.87 491.575 353.051L393.955 446.665C390.038 450.88 388.713 457.004 390.495 462.699Z" fill="#C6CBCB"/>
<path d="M425.969 563.334L541.049 460.18L505.713 357.599C505.713 357.599 501.241 346.492 491.652 353.299" stroke="#2A1E17" stroke-miterlimit="10" stroke-linecap="round" stroke-linejoin="round"/>
<path d="M467.828 468.408L469.402 442.361" stroke="#2A1E17" stroke-miterlimit="10" stroke-linecap="round" stroke-linejoin="round"/>
<path d="M476.684 465.637L478.486 439.519" stroke="#2A1E17" stroke-miterlimit="10" stroke-linecap="round" stroke-linejoin="round"/>
<path d="M338.169 824.602C342.433 823.268 344.711 818.417 343.256 813.767C341.801 809.118 337.165 806.43 332.9 807.764C328.636 809.098 326.358 813.949 327.813 818.599C329.268 823.249 333.904 825.936 338.169 824.602Z" fill="#FF6D66"/>
<path d="M-60.9266 1006.56C-50.3706 1008.42 -20.0038 1012.24 15.1191 1000.98C16.9359 1000.41 19.0679 1001.65 19.538 1003.95L27.7897 1047.85C28.0275 1049.41 27.5064 1050.93 26.2213 1051.61C16.8487 1056.71 -21.2614 1075.16 -59.838 1057.05C-60.9788 1056.6 -61.8978 1055.25 -61.831 1053.87L-64.4667 1010.38C-64.7098 1008.01 -62.9758 1006.38 -60.9266 1006.56Z" fill="#FFF7DC"/>
<path d="M-53.3419 1018.05C-53.3419 1018.05 -27.7928 1039.14 -20.499 1040.94C-13.2052 1042.74 13.4382 1010.75 13.4382 1010.75" stroke="#2A1E17" stroke-miterlimit="10" stroke-linecap="round" stroke-linejoin="round"/>
<path d="M-5.30994 1032.11L19.2883 1046.98" stroke="#2A1E17" stroke-miterlimit="10" stroke-linecap="round" stroke-linejoin="round"/>
<path d="M338.961 330.66L318.749 336.984L325.644 359.022L345.856 352.698L338.961 330.66Z" fill="#FFE1C0"/>
<path d="M414.984 635.007L424.757 644.727L434.452 654.199L422.189 658.036L410.153 661.802L412.72 648.493L414.984 635.007Z" fill="#A0C6F4"/>
<path d="M459.257 805.203L486.294 833.445C489.041 835.848 488.902 837.794 487.777 839.777C482.984 849.161 468.077 878.02 438.917 896.387C435.14 898.656 433.611 896.959 432.161 895.51L406.27 868.541C404.437 866.668 404.792 863.022 406.903 861.003C414.371 854.588 423.257 844.74 431.911 834.148C440.715 823.238 448.234 813.002 452.506 805.141C454.307 802.131 457.043 802.906 459.257 805.203Z" stroke="#2A1E17" stroke-miterlimit="10" stroke-linecap="round" stroke-linejoin="round"/>
<path d="M456.003 817.911L460.458 849.684L430.578 850.605C437.075 846.669 456.003 817.911 456.003 817.911Z" stroke="#2A1E17" stroke-miterlimit="10" stroke-linecap="round" stroke-linejoin="round"/>
<path d="M444.69 851.083L444.147 872.458L428.389 875.485L416.943 865.202L430.578 850.605" stroke="#2A1E17" stroke-miterlimit="10" stroke-linecap="round" stroke-linejoin="round"/>
<path d="M473.698 842.271C475.239 840.79 475.528 838.451 474.344 837.046C473.161 835.641 470.952 835.702 469.412 837.183C467.871 838.664 467.582 841.003 468.765 842.408C469.949 843.813 472.158 843.751 473.698 842.271Z" stroke="#2A1E17" stroke-miterlimit="10" stroke-linecap="round" stroke-linejoin="round"/>
<path d="M199.066 258.074L284.405 293.358C286.382 294.098 288.348 293.211 288.942 291.123L294.435 272.821C295.106 270.98 294.182 268.822 292.205 268.081L207.231 230.78C205.254 230.04 203.288 230.927 202.695 233.015L196.835 253.335C196.164 255.176 197.089 257.333 199.066 258.074Z" fill="white" stroke="#2A1E17" stroke-miterlimit="10" stroke-linecap="round" stroke-linejoin="round"/>
<path d="M203.287 254.035L223.512 261.3L229.404 245.864L208.099 235.946L203.287 254.035Z" fill="#FF6D66"/>
<path d="M231.193 264.334L252.265 273.509L257.176 258.923L236.254 249.43L231.193 264.334Z" fill="#FAD8B0"/>
<path d="M259.42 277.251L279.644 284.516L284.184 271.134L264.098 261.923L259.42 277.251Z" fill="#A0C6F4"/>
<path d="M309.249 136.878L368.929 273.437C370.163 276.585 373.508 277.713 376.155 276.613L401.032 264.48C403.603 263.132 404.872 260.017 403.41 256.94L346.528 118.962C345.294 115.814 341.871 114.438 339.074 115.857L311.704 129.586C309.057 130.686 308.092 133.978 309.249 136.878Z" fill="white" stroke="#2A1E17" stroke-miterlimit="10" stroke-linecap="round" stroke-linejoin="round"/>
<path d="M318.204 137.611L333.355 169.299L355.899 160.071L342.322 125.443L318.204 137.611Z" fill="#FF6D66"/>
<path d="M339.123 181.36L353.226 215.279L373.876 206.372L359.845 171.886L339.123 181.36Z" fill="#91BA83"/>
<path d="M357.554 227.518L372.627 258.959L391.46 250.62L378.426 217.725L357.554 227.518Z" fill="#FAD8B0"/>
<path d="M285.09 177.604L370.627 301.179C372.005 303.194 374.891 303.651 376.702 302.269L400.246 283.484C402.058 282.102 402.418 279.271 401.04 277.255L317.613 151.66C316.157 149.397 313.272 148.941 311.538 150.571L285.961 171.622C283.994 172.509 283.634 175.341 285.09 177.604Z" fill="white" stroke="#2A1E17" stroke-miterlimit="10" stroke-linecap="round" stroke-linejoin="round"/>
<path d="M294.494 177.38L315.384 205.098L335.393 190.954L315.39 159.696L294.494 177.38Z" fill="#A0C6F4"/>
<path d="M323.19 215.705L343.414 246.078L361.684 232.75L341.532 201.811L323.19 215.705Z" fill="#F9865F"/>
<path d="M349.858 257.111L370.825 285.077L387.128 272.636L368.272 242.651L349.858 257.111Z" fill="#FAD8B0"/>
<path d="M35.8047 510.057L-179.712 577.486C-186.525 579.618 -194.14 575.204 -196.464 567.775L-206.38 536.08C-208.705 528.651 -204.964 520.684 -198.151 518.553L17.3662 451.124C24.1792 448.992 31.7935 453.406 34.1177 460.835L44.0342 492.53C46.3584 499.959 42.6177 507.925 35.8047 510.057Z" fill="#7595EC"/>
<path d="M-171.99 551.962L27.857 489.436" stroke="#2A1E17" stroke-miterlimit="10" stroke-linecap="round" stroke-linejoin="round"/>
<path d="M249.427 94.6987L229.215 101.022L235.491 121.079L255.703 114.756L249.427 94.6987Z" fill="#FAD8B0"/>
<path d="M225.187 88.1462L229.215 101.022L217.179 104.788" stroke="#2A1E17" stroke-miterlimit="10" stroke-linecap="round" stroke-linejoin="round"/>
<path d="M236.045 983.511L298.354 941.996L303.636 949.315L240.264 990.619L236.045 983.511Z" stroke="#2A1E17" stroke-miterlimit="10" stroke-linecap="round" stroke-linejoin="round"/>
<path d="M223.253 976.096L227.389 982.142" stroke="#2A1E17" stroke-miterlimit="10" stroke-linecap="round" stroke-linejoin="round"/>
<path d="M222.831 981.121L227.811 977.116" stroke="#2A1E17" stroke-miterlimit="10" stroke-linecap="round" stroke-linejoin="round"/>
<path d="M228.208 1003.09L235.793 1014.58" stroke="#2A1E17" stroke-miterlimit="10" stroke-linecap="round" stroke-linejoin="round"/>
<path d="M227.508 1012.01L236.643 1005.34" stroke="#2A1E17" stroke-miterlimit="10" stroke-linecap="round" stroke-linejoin="round"/>
<path d="M205.876 986.698L215.99 1002.29" stroke="#2A1E17" stroke-miterlimit="10" stroke-linecap="round" stroke-linejoin="round"/>
<path d="M204.211 998.909L217.196 989.409" stroke="#2A1E17" stroke-miterlimit="10" stroke-linecap="round" stroke-linejoin="round"/>
<path d="M229.098 535.76L217.348 629.693C217.348 629.693 245.96 631.888 235.969 670.083C235.969 670.083 289.641 676.67 303.25 611.788C316.859 546.906 229.098 535.76 229.098 535.76Z" fill="#91BA83"/>
<path d="M221.508 813.527C202.431 819.495 179.813 817.329 153.878 806.957L184.309 657.973L235.082 673.623L235.309 673.552C235.84 673.657 246.391 674.706 259.336 670.656C270.009 667.317 282.329 660.472 292.175 646.517L270.832 758.403C271.214 758.828 260.342 801.377 221.508 813.527Z" fill="white"/>
<path d="M187.376 662.994L234.272 677.41L234.804 677.516L235.335 677.621C235.867 677.727 247.027 679.129 260.88 674.794C268.828 672.308 278.129 667.767 286.422 660.007L267.869 757.699C266.977 760.425 256.078 798.905 220.423 810.06C202.937 815.531 181.99 813.929 158.188 804.793L187.376 662.994ZM303.173 611.54C295.447 648.211 275.134 662.179 258.783 667.295C246.065 671.274 235.969 670.083 235.969 670.083L181.928 653.552L149.951 809.545C181.212 822.6 204.807 823.102 222.974 817.418C264.079 804.557 275.013 759.814 275.013 759.814L303.173 611.54Z" fill="#96BD89"/>
<path d="M217.271 629.445C217.271 629.445 248.613 631.601 235.891 669.835" stroke="#2A1E17" stroke-miterlimit="10" stroke-linecap="round" stroke-linejoin="round"/>
<path d="M180.013 650.617C180.013 650.617 230.096 676.814 251.139 669.958C272.182 663.103 295.231 649.91 301.166 617.877" stroke="#2A1E17" stroke-miterlimit="10" stroke-linecap="round" stroke-linejoin="round"/>
<path d="M200.276 698.649C200.276 698.649 234.295 715.735 261.112 698.645" stroke="#2A1E17" stroke-miterlimit="10" stroke-linecap="round" stroke-linejoin="round"/>
<path d="M239.609 727.937C239.609 727.937 256.948 734.746 272.693 718.13" stroke="#2A1E17" stroke-miterlimit="10" stroke-linecap="round" stroke-linejoin="round"/>
<path d="M181.356 763.29C181.356 763.29 223.919 787.762 266.526 749.42" stroke="#2A1E17" stroke-miterlimit="10" stroke-linecap="round" stroke-linejoin="round"/>
<path d="M188.079 724.214C188.079 724.214 204.2 730.316 213.383 730.977" stroke="#2A1E17" stroke-miterlimit="10" stroke-linecap="round" stroke-linejoin="round"/>
<path d="M242.895 557.542C242.895 557.542 274.99 558.918 291.639 599.381" stroke="#2A1E17" stroke-miterlimit="10" stroke-linecap="round" stroke-linejoin="round"/>
<path d="M273.543 604.499C273.543 604.499 293.992 622.84 278.332 652.479" stroke="#2A1E17" stroke-miterlimit="10" stroke-linecap="round" stroke-linejoin="round"/>
<path d="M154.613 814.883C154.613 814.883 248.512 859.993 276.408 764.271" stroke="#2A1E17" stroke-miterlimit="10" stroke-linecap="round" stroke-linejoin="round"/>
<path d="M423.386 202.843L440.418 197.514" stroke="#FF6D66" stroke-miterlimit="10" stroke-linecap="round" stroke-linejoin="round"/>
<path d="M485.843 288.511L503.428 286.543" stroke="#FAD8B0" stroke-miterlimit="10"/>
<path d="M596.548 514.043C599.683 513.062 601.358 509.495 600.288 506.076C599.219 502.657 595.81 500.681 592.674 501.662C589.538 502.643 587.864 506.21 588.933 509.629C590.003 513.048 593.412 515.024 596.548 514.043Z" fill="#91BA83"/>
<path d="M785.139 888.107C788.4 887.087 790.142 883.378 789.03 879.822C787.917 876.266 784.372 874.211 781.111 875.231C777.85 876.252 776.108 879.961 777.22 883.517C778.333 887.072 781.878 889.128 785.139 888.107Z" fill="#2A1E17"/>
<path d="M1055.86 562.812C1059.12 561.791 1060.86 558.082 1059.75 554.526C1058.64 550.971 1055.09 548.915 1051.83 549.936C1048.57 550.956 1046.83 554.665 1047.94 558.221C1049.06 561.777 1052.6 563.832 1055.86 562.812Z" fill="#2A1E17"/>
<path d="M1054.44 553.471C1054.44 553.471 1053.73 387.044 872.614 542.122C684.41 703.224 658.784 925.737 699.015 930.006C739.473 934.203 781.541 882.981 781.541 882.981" stroke="#2A1E17" stroke-miterlimit="10" stroke-linecap="round" stroke-linejoin="round"/>
</g>
<defs>
<clipPath id="clip0_202_2426">
<rect width="1542.19" height="972.699" fill="white" transform="translate(-625 330.494) rotate(-17.3734)"/>
</clipPath>
</defs>
</svg>
