<svg width="24" height="23" viewBox="0 0 24 23" fill="none" xmlns="http://www.w3.org/2000/svg">
<g clip-path="url(#clip0_202_2247)">
<path d="M23.1698 9.24757H22.2435V9.19985H11.8937V13.7998H18.3928C17.4446 16.4775 14.8969 18.3997 11.8937 18.3997C8.08323 18.3997 4.99381 15.3103 4.99381 11.4998C4.99381 7.68935 8.08323 4.59993 11.8937 4.59993C13.6526 4.59993 15.2528 5.26346 16.4712 6.34732L19.7239 3.0946C17.67 1.18046 14.9227 3.8147e-06 11.8937 3.8147e-06C5.54293 3.8147e-06 0.39389 5.14904 0.39389 11.4998C0.39389 17.8506 5.54293 22.9996 11.8937 22.9996C18.2445 22.9996 23.3935 17.8506 23.3935 11.4998C23.3935 10.7287 23.3141 9.97608 23.1698 9.24757Z" fill="#FFC107"/>
<path d="M1.71906 6.14722L5.49731 8.9181C6.51965 6.38699 8.99555 4.59992 11.8929 4.59992C13.6518 4.59992 15.252 5.26346 16.4704 6.34732L19.7231 3.0946C17.6693 1.18046 14.922 3.8147e-06 11.8929 3.8147e-06C7.47586 3.8147e-06 3.64527 2.49374 1.71906 6.14722Z" fill="#FF3D00"/>
<path d="M11.8939 23C14.8643 23 17.5633 21.8632 19.6039 20.0147L16.0447 17.0029C14.8513 17.9104 13.3931 18.4013 11.8939 18.4001C8.90276 18.4001 6.36303 16.4928 5.40624 13.8312L1.65616 16.7205C3.55938 20.4447 7.42446 23 11.8939 23Z" fill="#4CAF50"/>
<path d="M23.1698 9.24757H22.2435V9.19984H11.8937V13.7998H18.3928C17.9393 15.0742 17.1223 16.1878 16.0428 17.003L16.0446 17.0019L19.6038 20.0137C19.3519 20.2425 23.3935 17.2497 23.3935 11.4998C23.3935 10.7287 23.3142 9.97608 23.1698 9.24757Z" fill="#1976D2"/>
</g>
<defs>
<clipPath id="clip0_202_2247">
<rect x="0.39389" y="3.8147e-06" width="23" height="23" rx="11.5" fill="white"/>
</clipPath>
</defs>
</svg>
